<?xml version="1.0" encoding="utf-8"?>
<!-- Generator: Adobe Illustrator 25.0.0, SVG Export Plug-In . SVG Version: 6.00 Build 0)  -->
<svg version="1.1" id="Layer_1" xmlns="http://www.w3.org/2000/svg" xmlns:xlink="http://www.w3.org/1999/xlink" x="0px" y="0px"
	 viewBox="0 0 900 700" style="enable-background:new 0 0 900 700;" xml:space="preserve">
<style type="text/css">
	.st0{fill:#FFFFFF;}
</style>
<g>
	<g>
		<path class="st0" d="M541.59,227.65c0,16.59-6.86,20.8-15.71,20.8h-5.53v-41.59h5.53C534.73,206.86,541.59,211.06,541.59,227.65
			L541.59,227.65z M520.35,283.85h9.07c26.55,0,50.22-9.07,50.22-56.2c0-47.12-23.67-56.19-50.22-56.19h-48.45v172.57h39.38V283.85z
			"/>
		<polygon class="st0" points="175.67,358.19 175.67,425 143.81,425 143.81,358.19 104.43,358.19 104.43,530.75 143.81,530.75 
			143.81,460.4 175.67,460.4 175.67,530.75 215.05,530.75 215.05,358.19 		"/>
		<polygon class="st0" points="229.2,358.19 229.2,530.75 327.88,530.75 327.88,495.35 268.58,495.35 268.58,460.4 316.15,460.4 
			316.15,425 268.58,425 268.58,393.58 327.88,393.58 327.88,358.19 		"/>
		<rect x="534.96" y="358.19" class="st0" width="39.38" height="172.56"/>
		<polygon class="st0" points="657.52,393.58 687.17,393.58 687.17,358.19 588.5,358.19 588.5,393.58 618.14,393.58 618.14,530.75 
			657.52,530.75 		"/>
		<polygon class="st0" points="770.35,393.58 800,393.58 800,358.19 701.33,358.19 701.33,393.58 730.97,393.58 730.97,530.75 
			770.35,530.75 		"/>
		<polygon class="st0" points="588.5,171.46 588.5,344.03 687.17,344.03 687.17,308.63 627.88,308.63 627.88,273.67 675.44,273.67 
			675.44,238.27 627.88,238.27 627.88,206.86 687.17,206.86 687.17,171.46 		"/>
		<path class="st0" d="M300.89,263.5c0,39.82-3.76,48.45-17.26,48.45h-1.77c-13.49,0-17.26-8.63-17.26-48.45v-11.5
			c0-39.82,3.76-48.45,17.26-48.45h1.77c13.5,0,17.26,8.63,17.26,48.45V263.5z M225.22,260.84c0,63.72,13.94,85.4,57.52,85.4
			c43.58,0,57.52-21.68,57.52-85.4v-6.2c0-63.72-13.94-85.4-57.52-85.4c-43.58,0-57.52,21.68-57.52,85.4V260.84z"/>
		<path class="st0" d="M100,260.84c0,63.72,18.58,85.4,59.96,85.4c37.83,0,55.09-13.94,55.09-57.96v-4.42h-38.94
			c-0.66,21.24-6.19,28.1-16.15,28.1h-1.77c-10.4,0-18.8-8.63-18.8-48.45v-11.5c0-39.82,8.41-48.45,18.8-48.45h1.77
			c9.96,0,16.15,6.64,16.15,34.74h38.94v-11.06c0-44.03-17.26-57.96-55.09-57.96c-41.37,0-59.96,21.68-59.96,85.4V260.84z"/>
		<path class="st0" d="M427.88,263.5c0,39.82-3.76,48.45-17.26,48.45h-1.77c-13.5,0-17.26-8.63-17.26-48.45v-11.5
			c0-39.82,3.76-48.45,17.26-48.45h1.77c13.49,0,17.26,8.63,17.26,48.45V263.5z M352.21,260.84c0,63.72,13.94,85.4,57.52,85.4
			c43.58,0,57.52-21.68,57.52-85.4v-6.2c0-63.72-13.94-85.4-57.52-85.4c-43.58,0-57.52,21.68-57.52,85.4V260.84z"/>
		<path class="st0" d="M740.71,283.85h6.86l10.18,60.18l42.26,0.22l-17.92-69.47c8.85-6.19,17.92-18.81,17.92-47.35
			c0-46.9-23.67-55.97-50.22-55.97h-48.45v172.57h39.38V283.85z M761.94,227.65c0,16.59-6.86,20.8-15.71,20.8h-5.53v-41.59h5.53
			C755.09,206.86,761.94,211.06,761.94,227.65L761.94,227.65z"/>
		<polygon class="st0" points="429.87,358.19 407.08,358.19 389.38,482.52 388.5,482.52 378.76,358.19 337.61,358.19 360.62,530.75 
			412.61,530.75 429.43,412.83 430.31,412.83 447.12,530.75 499.12,530.75 522.12,358.19 480.97,358.19 471.24,482.3 470.36,482.3 
			452.66,358.19 		"/>
	</g>
</g>
</svg>
